<svg width="275" height="441" viewBox="0 0 275 441" fill="none" xmlns="http://www.w3.org/2000/svg">
<path d="M37.2922 195.672C32.0389 187.103 31.9238 176.452 30.6568 166.638C27.5329 142.441 23.6382 118.394 20.0774 94.2699C15.9456 66.2778 16.0982 36.8615 10.2302 9.25152C9.89992 7.69742 7.78323 4.07517 10.7128 3.78492C44.1851 0.468499 79.076 3.54596 112.54 3.75547C129.715 3.863 146.901 3.62342 164.066 4.00791C167.318 4.08074 181.146 2.29592 176.391 9.81298C171.182 18.05 162.425 25.2964 155.246 31.0058C133.925 47.9621 115.6 59.7655 91.6597 73.6267C68.7823 86.8725 50.759 96.166 26.8835 105.761C24.4218 106.751 8.71243 113.445 2.70469 112.146C0.470565 111.663 7.42842 111.182 9.58884 111.917C29.0324 118.537 44.5991 132.399 63.5148 139.943C81.5019 147.116 100.817 147.03 117.316 135.253C124.278 130.283 138.08 116.28 133.861 105.919C130.612 97.9401 113.79 116.2 115.625 122.861C119.927 138.482 148.637 109.411 152.202 103.852C154.199 100.739 152.663 100.792 151.913 103.24C149.27 111.86 154.737 124.718 161.483 129.922C173.532 139.216 189.403 123.817 197.196 115.784C210.056 102.53 221.133 86.0223 227.673 68.6886C228.826 65.6326 226.599 75.1153 226.167 78.342C215.573 157.426 205.541 236.573 188.128 314.659C179.675 352.562 169.715 392.074 152.467 427.29C151.68 428.895 147.033 438.273 143.235 439.279C136.616 441.033 130.344 427.752 129.034 424.305C120.078 400.738 131.298 377.65 143.759 357.383C176.302 304.448 217.533 257.29 253.151 206.485C256.328 201.952 277.609 176.404 271.898 167.987C269.813 164.914 261.691 166.433 260.051 166.852C245.709 170.519 232.226 178.867 221.128 188.628C216.344 192.835 200.418 207.347 210.127 214.174" stroke="#FFA500" stroke-width="3" stroke-linecap="round"/>
</svg>
